# xmcd CD database file
#
# Track frame offsets:
#	150
#	14660
#	27106
#	43252
#	71519
#	99336
#	120186
#	139175
#	154940
#	173661
#	201504
#	222007
#	238604
#	256452
#
# Disc length: 3476 seconds
#
# Revision: 0
# Processed by: cddbd v1.5.2PL0 Copyright (c) Steve Scherf et al.
# Submitted via: CDex 1.50Beta7
#
DISCID=c10d920e
DTITLE=Waldenfels und Morell - Live in the record store
DYEAR=2006
DGENRE=Jazz
TTITLE0=Sous le ciel de Paris
TTITLE1=Clandestino
TTITLE2=Mon mec a moi
TTITLE3=Smoke on the water
TTITLE4=Ich weiß nicht zu wem ich gehöre
TTITLE5=It's a good day
TTITLE6=The look of love
TTITLE7=Sympathique
TTITLE8=Dia luna dia pena
TTITLE9=TNT
TTITLE10=Ich bin von Kopf bis Fuß auf Liebe eingestellt
TTITLE11=Throw it away
TTITLE12=Ain't misbehavin'
TTITLE13=Irgendwo auf der Welt
EXTD=YEAR: 2006
EXTT0=
EXTT1=
EXTT2=
EXTT3=
EXTT4=
EXTT5=
EXTT6=
EXTT7=
EXTT8=
EXTT9=
EXTT10=
EXTT11=
EXTT12=
EXTT13=
PLAYORDER=
